<?xml version="1.0" encoding="utf-8"?>
<!-- Generator: Adobe Illustrator 24.3.0, SVG Export Plug-In . SVG Version: 6.00 Build 0)  -->
<svg version="1.1" xmlns="http://www.w3.org/2000/svg" xmlns:xlink="http://www.w3.org/1999/xlink" x="0px" y="0px"
	 viewBox="0 0 100 100" style="enable-background:new 0 0 100 100;" xml:space="preserve">
<style type="text/css">
	.st0{fill:none;stroke:#9B9A9A;stroke-width:0.5;stroke-miterlimit:10;}
	.st1{fill:none;stroke:#000000;stroke-width:0.75;stroke-miterlimit:10;}
</style>
<g id="Layer_2">
	<polyline class="st0" points="31.77,49.03 39.11,76.83 31.83,80.85 22.83,63.02 22.83,40.57 26.91,32.4 30.87,28.19 36.62,25.38 
		44.66,22.19 49.26,31.77 55.38,28.45 54.74,26.4 47.98,17.21 47.19,16.32 	"/>
	<path class="st0" d="M38.11,77.38c1.25,1.16,3.09,2.61,5.56,3.81c3.52,1.71,6.75,2.16,8.78,2.28l2.94-8.04l4.21,8.13
		c0,0,13.28-0.34,15.96-15.41V62.4l5.49,20.17l8.94-1.73l-5.36-47.68c0,0-1.4-4.72-7.15-7.15s-10.72-3.83-10.72-3.83l-2.2-5.87
		l-7.88,9.57L56,28.45l5,3.19l4.98-8.68c0.37-0.41,0.74-0.81,1.11-1.22"/>
	<line class="st0" x1="55.38" y1="28.45" x2="55.38" y2="75.43"/>
	<path class="st0" d="M75.18,25.09c0.12,12.44,0.25,24.87,0.37,37.31"/>
	<line class="st0" x1="35.69" y1="25.83" x2="36.38" y2="66.49"/>
	<polyline class="st0" points="44.66,22.19 47.47,15.68 64.54,15.68 	"/>
	<line class="st0" x1="60.08" y1="21.74" x2="51.31" y2="21.74"/>
	<line class="st1" x1="32.96" y1="76.19" x2="38.18" y2="73.31"/>
	<line class="st1" x1="84.19" y1="77.3" x2="89.49" y2="76.52"/>
	<path class="st0" d="M60.79,41.72h10.47c0,2.34,0,4.68,0,7.02c-1.67,1.06-3.35,2.13-5.02,3.19l-5.45-3.35V41.72z"/>
	<path class="st1" d="M18.41,70.93l12.6,13.7c0,0,3.74,2.72,0.85,5.19l-1.29,1.35l-0.66,0.69c0,0-2.55,3.49-5.96-0.68L11.01,77.31
		c0,0-3.15-2.55,0-5.45l2.47-1.96C13.48,69.9,16.03,66.84,18.41,70.93z"/>
	<path class="st0" d="M4.63,99.41l-2.98-3.13l5.79-5.53c0,0,3.56-2.19,4.79-1.57c0.74,0.37,0.64,1.76-1.56,5.23l-5.53,5H4.63z"/>
	<path class="st0" d="M13.65,88.37"/>
	<path class="st0" d="M30.57,91.17c0,0,2.41,1.65,0.87,3.07c-2.21,2.04-2.81,2.73-2.81,2.73s-1.19,1.87-3.57,0l-7.83-8.6
		c0,0-1.28-2.72-3.57-0.6l-1.42,1.4"/>
</g>
<g id="Layer_3">
	<circle cx="52.37" cy="36.52" r="0.8"/>
	<circle cx="52.37" cy="44.24" r="0.8"/>
	<circle cx="52.37" cy="67.57" r="0.8"/>
	<circle cx="52.37" cy="52.38" r="0.8"/>
	<circle cx="52.37" cy="60.52" r="0.8"/>
</g>
</svg>
